<mxfile host="app.diagrams.net" modified="2023-10-29T14:48:25.982Z" agent="Mozilla/5.0 (Windows NT 10.0; Win64; x64) AppleWebKit/537.36 (KHTML, like Gecko) Chrome/118.0.0.0 Safari/537.36" version="22.0.8" etag="JECv1H2fMu0VEyjA_3Xt" type="github">
  <diagram name="Halaman-1" id="nnQw1tDr03N8haPYhf8q">
    <mxGraphModel>
      <root>
        <mxCell id="0" />
        <mxCell id="1" parent="0" />
      </root>
    </mxGraphModel>
  </diagram>
</mxfile>
